<svg width="24" height="24" viewBox="0 0 24 24" fill="none" xmlns="http://www.w3.org/2000/svg">
<path d="M9.70227 15.5H14.2977V14.5H9.70227V15.5ZM14.2977 15.5C16.0663 15.5 17.5 16.9337 17.5 18.7023H18.5C18.5 16.3814 16.6186 14.5 14.2977 14.5V15.5ZM9.70227 14.5C7.38142 14.5 5.5 16.3814 5.5 18.7023H6.5C6.5 16.9337 7.9337 15.5 9.70227 15.5V14.5ZM14.5 9C14.5 10.3807 13.3807 11.5 12 11.5V12.5C13.933 12.5 15.5 10.933 15.5 9H14.5ZM12 11.5C10.6193 11.5 9.5 10.3807 9.5 9H8.5C8.5 10.933 10.067 12.5 12 12.5V11.5ZM9.5 9C9.5 7.61929 10.6193 6.5 12 6.5V5.5C10.067 5.5 8.5 7.067 8.5 9H9.5ZM12 6.5C13.3807 6.5 14.5 7.61929 14.5 9H15.5C15.5 7.067 13.933 5.5 12 5.5V6.5ZM20.5 12C20.5 16.6944 16.6944 20.5 12 20.5V21.5C17.2467 21.5 21.5 17.2467 21.5 12H20.5ZM12 20.5C7.30558 20.5 3.5 16.6944 3.5 12H2.5C2.5 17.2467 6.75329 21.5 12 21.5V20.5ZM3.5 12C3.5 7.30558 7.30558 3.5 12 3.5V2.5C6.75329 2.5 2.5 6.75329 2.5 12H3.5ZM12 3.5C16.6944 3.5 20.5 7.30558 20.5 12H21.5C21.5 6.75329 17.2467 2.5 12 2.5V3.5Z" fill="#001A72"/>
</svg>
