<svg width="90" height="90" viewBox="0 0 90 90" fill="none" xmlns="http://www.w3.org/2000/svg">
<circle cx="45" cy="45" r="44.5" fill="white" stroke="#37327D"/>
<path d="M41.75 52.25V66H24.25V52.25M41.75 52.25H24.25M41.75 52.25C42.4404 52.25 43 51.6904 43 51V47.25C43 46.5596 42.4404 46 41.75 46H24.25C23.5596 46 23 46.5596 23 47.25V51C23 51.6904 23.5596 52.25 24.25 52.25M30.5 57.25H35.5" stroke="#001A72" stroke-width="1.5" stroke-linecap="round" stroke-linejoin="round"/>
<path d="M66.75 52.25V66H49.25V52.25M66.75 52.25H49.25M66.75 52.25C67.4404 52.25 68 51.6904 68 51V47.25C68 46.5596 67.4404 46 66.75 46H49.25C48.5596 46 48 46.5596 48 47.25V51C48 51.6904 48.5596 52.25 49.25 52.25M55.5 57.25H60.5" stroke="#001A72" stroke-width="1.5" stroke-linecap="round" stroke-linejoin="round"/>
<path d="M35.25 40L34.5102 40.1233C34.5705 40.4849 34.8834 40.75 35.25 40.75V40ZM52.75 40V40.75C53.1166 40.75 53.4295 40.4849 53.4898 40.1233L52.75 40ZM48.375 30.625L47.7423 31.0277C47.8574 31.2086 48.0444 31.3315 48.2561 31.3655C48.4678 31.3995 48.684 31.3412 48.8499 31.2055L48.375 30.625ZM39.625 30.625L39.1501 31.2055C39.316 31.3412 39.5322 31.3995 39.7439 31.3655C39.9556 31.3315 40.1426 31.2086 40.2577 31.0277L39.625 30.625ZM32.0102 25.1233L34.5102 40.1233L35.9898 39.8767L33.4898 24.8767L32.0102 25.1233ZM35.25 40.75H52.75V39.25H35.25V40.75ZM53.4898 40.1233L55.9898 25.1233L54.5102 24.8767L52.0102 39.8767L53.4898 40.1233ZM54.7751 24.4195L47.9001 30.0445L48.8499 31.2055L55.7249 25.5805L54.7751 24.4195ZM32.2751 25.5805L39.1501 31.2055L40.0999 30.0445L33.2249 24.4195L32.2751 25.5805ZM40.2577 31.0277L44.6327 24.1527L43.3673 23.3473L38.9923 30.2223L40.2577 31.0277ZM43.3673 24.1527L47.7423 31.0277L49.0077 30.2223L44.6327 23.3473L43.3673 24.1527ZM45.125 21.875C45.125 22.4963 44.6213 23 44 23V24.5C45.4497 24.5 46.625 23.3247 46.625 21.875H45.125ZM44 23C43.3787 23 42.875 22.4963 42.875 21.875H41.375C41.375 23.3247 42.5503 24.5 44 24.5V23ZM42.875 21.875C42.875 21.2537 43.3787 20.75 44 20.75V19.25C42.5503 19.25 41.375 20.4253 41.375 21.875H42.875ZM44 20.75C44.6213 20.75 45.125 21.2537 45.125 21.875H46.625C46.625 20.4253 45.4497 19.25 44 19.25V20.75ZM33.875 23.125C33.875 23.7463 33.3713 24.25 32.75 24.25V25.75C34.1997 25.75 35.375 24.5747 35.375 23.125H33.875ZM32.75 24.25C32.1287 24.25 31.625 23.7463 31.625 23.125H30.125C30.125 24.5747 31.3003 25.75 32.75 25.75V24.25ZM31.625 23.125C31.625 22.5037 32.1287 22 32.75 22V20.5C31.3003 20.5 30.125 21.6753 30.125 23.125H31.625ZM32.75 22C33.3713 22 33.875 22.5037 33.875 23.125H35.375C35.375 21.6753 34.1997 20.5 32.75 20.5V22ZM56.375 23.125C56.375 23.7463 55.8713 24.25 55.25 24.25V25.75C56.6997 25.75 57.875 24.5747 57.875 23.125H56.375ZM55.25 24.25C54.6287 24.25 54.125 23.7463 54.125 23.125H52.625C52.625 24.5747 53.8003 25.75 55.25 25.75V24.25ZM54.125 23.125C54.125 22.5037 54.6287 22 55.25 22V20.5C53.8003 20.5 52.625 21.6753 52.625 23.125H54.125ZM55.25 22C55.8713 22 56.375 22.5037 56.375 23.125H57.875C57.875 21.6753 56.6997 20.5 55.25 20.5V22Z" fill="#001A72"/>
</svg>
