<svg width="90" height="90" viewBox="0 0 90 90" fill="none" xmlns="http://www.w3.org/2000/svg">
<circle cx="45" cy="45" r="44.5" fill="white" stroke="#37327D"/>
<path d="M39.9584 52.25V66H23.0417V52.25M39.9584 52.25H23.0417M39.9584 52.25C40.6257 52.25 41.1667 51.6904 41.1667 51V47.25C41.1667 46.5596 40.6257 46 39.9584 46H23.0417C22.3744 46 21.8334 46.5596 21.8334 47.25V51C21.8334 51.6904 22.3744 52.25 23.0417 52.25M29.0834 57.25H33.9167" stroke="#001A72" stroke-width="1.5" stroke-linecap="round" stroke-linejoin="round"/>
<path d="M68.75 52.25V66H51.25V52.25M68.75 52.25H51.25M68.75 52.25C69.4404 52.25 70 51.6904 70 51V47.25C70 46.5596 69.4404 46 68.75 46H51.25C50.5596 46 50 46.5596 50 47.25V51C50 51.6904 50.5596 52.25 51.25 52.25M57.5 57.25H62.5" stroke="#001A72" stroke-width="1.5" stroke-linecap="round" stroke-linejoin="round"/>
<path d="M53.9584 26.25V40H37.0417V26.25M53.9584 26.25H37.0417M53.9584 26.25C54.6257 26.25 55.1667 25.6904 55.1667 25V21.25C55.1667 20.5596 54.6257 20 53.9584 20H37.0417C36.3744 20 35.8334 20.5596 35.8334 21.25V25C35.8334 25.6904 36.3744 26.25 37.0417 26.25M43.0834 31.25H47.9167" stroke="#001A72" stroke-width="1.5" stroke-linecap="round" stroke-linejoin="round"/>
</svg>
