<svg width="87" height="87" viewBox="0 0 87 87" fill="none" xmlns="http://www.w3.org/2000/svg">
<path d="M18.125 10.875V10.125C17.7108 10.125 17.375 10.4608 17.375 10.875H18.125ZM68.875 76.125V76.875C69.2892 76.875 69.625 76.5392 69.625 76.125H68.875ZM18.125 76.125H17.375C17.375 76.5392 17.7108 76.875 18.125 76.875V76.125ZM50.75 10.875L51.2803 10.3447C51.1397 10.204 50.9489 10.125 50.75 10.125V10.875ZM68.875 29H69.625C69.625 28.8011 69.546 28.6103 69.4053 28.4697L68.875 29ZM29 60.875C28.5858 60.875 28.25 61.2108 28.25 61.625C28.25 62.0392 28.5858 62.375 29 62.375V60.875ZM58 62.375C58.4142 62.375 58.75 62.0392 58.75 61.625C58.75 61.2108 58.4142 60.875 58 60.875V62.375ZM29 46.375C28.5858 46.375 28.25 46.7108 28.25 47.125C28.25 47.5392 28.5858 47.875 29 47.875V46.375ZM50.75 47.875C51.1642 47.875 51.5 47.5392 51.5 47.125C51.5 46.7108 51.1642 46.375 50.75 46.375V47.875ZM68.875 75.375H18.125V76.875H68.875V75.375ZM18.875 76.125V10.875H17.375V76.125H18.875ZM18.125 11.625H50.75V10.125H18.125V11.625ZM68.125 29V76.125H69.625V29H68.125ZM50.2197 11.4053L68.3447 29.5303L69.4053 28.4697L51.2803 10.3447L50.2197 11.4053ZM46.375 10.875V25.375H47.875V10.875H46.375ZM54.375 33.375H68.875V31.875H54.375V33.375ZM46.375 25.375C46.375 29.7933 49.9567 33.375 54.375 33.375V31.875C50.7852 31.875 47.875 28.9649 47.875 25.375H46.375ZM29 62.375H58V60.875H29V62.375ZM29 47.875H50.75V46.375H29V47.875Z" fill="#001A72"/>
</svg>
